<svg width="24" height="24" viewBox="0 0 24 24" fill="none" xmlns="http://www.w3.org/2000/svg">
    <path fill-rule="evenodd" clip-rule="evenodd" d="M17.7924 3.32918C17.5592 3.11737 17.2554 3.00002 16.9404 3H4.26731L4.14565 3.00591C3.83206 3.03616 3.54099 3.18211 3.32918 3.41532C3.11737 3.64853 3.00002 3.95227 3 4.26731V16.9404L3.00591 17.062C3.03616 17.3756 3.18211 17.6667 3.41532 17.8785C3.64853 18.0903 3.95227 18.2077 4.26731 18.2077H8.11654L8.21539 18.2018C8.42091 18.1776 8.61039 18.0788 8.7479 17.9241C8.88541 17.7695 8.96139 17.5698 8.96141 17.3628L8.95634 17.264C8.93212 17.0583 8.8332 16.8687 8.67838 16.7312C8.52356 16.5936 8.32363 16.5178 8.11654 16.5179H4.68974V4.68974H16.5179V8.9724L16.5239 9.0704C16.5493 9.28416 16.6553 9.48016 16.8204 9.61837C16.9854 9.75658 17.197 9.82658 17.4119 9.81407C17.6268 9.80156 17.8288 9.70749 17.9767 9.55107C18.1246 9.39464 18.2072 9.18767 18.2077 8.9724V4.26731L18.2018 4.14565C18.1715 3.83206 18.0256 3.54099 17.7924 3.32918ZM12.1715 15.7472H19.7068C19.8468 15.7472 19.9603 15.8606 19.9603 16.0006V20.4147C19.9603 20.5547 19.8468 20.6682 19.7068 20.6682H12.1715C12.0315 20.6682 11.918 20.5547 11.918 20.4147V16.0006C11.918 15.8606 12.0315 15.7472 12.1715 15.7472ZM10.4817 16.0006C10.4817 15.0674 11.2383 14.3109 12.1715 14.3109H12.8777V12.2936C12.8777 11.3604 13.6343 10.6038 14.5675 10.6038H17.3084C18.2416 10.6038 18.9981 11.3604 18.9981 12.2936V14.3109H19.7068C20.6401 14.3109 21.3966 15.0674 21.3966 16.0006V20.4147C21.3966 21.348 20.6401 22.1045 19.7068 22.1045H12.1715C11.2383 22.1045 10.4817 21.348 10.4817 20.4147V16.0006ZM17.3084 12.0401H14.5675C14.4275 12.0401 14.314 12.1536 14.314 12.2936V14.2952H17.5618V12.2936C17.5618 12.1536 17.4483 12.0401 17.3084 12.0401ZM15.242 18.9032C15.0573 18.7186 14.9536 18.4682 14.9536 18.2071C14.9536 17.946 15.0573 17.6955 15.242 17.5109C15.4266 17.3263 15.677 17.2226 15.9381 17.2226C16.1992 17.2226 16.4497 17.3263 16.6343 17.5109C16.8189 17.6955 16.9226 17.946 16.9226 18.2071C16.9226 18.4682 16.8189 18.7186 16.6343 18.9032C16.4497 19.0879 16.1992 19.1916 15.9381 19.1916C15.677 19.1916 15.4266 19.0879 15.242 18.9032ZM6.81182 11.8259C6.81182 11.3593 7.19008 10.981 7.65669 10.981L10.2189 10.981C10.6856 10.981 11.0638 11.3593 11.0638 11.8259C11.0638 12.2925 10.6856 12.6707 10.2189 12.6707H7.65669C7.19008 12.6707 6.81182 12.2925 6.81182 11.8259ZM7.65669 7.10885C7.19008 7.10885 6.81182 7.48711 6.81182 7.95372C6.81182 8.42033 7.19008 8.79859 7.65669 8.79859L13.6349 8.79859C14.1016 8.79859 14.4798 8.42033 14.4798 7.95372C14.4798 7.48711 14.1016 7.10885 13.6349 7.10885L7.65669 7.10885Z" fill="white"/>
</svg>
