<svg width="18" height="18" viewBox="0 0 18 18" fill="none" xmlns="http://www.w3.org/2000/svg">
<path d="M11.9692 8.03539H13.9254V9.99156H11.9692V8.03539ZM4.14453 4.12305H6.1007V6.07919H4.14455V4.12305H4.14453ZM7.0788 4.12305H9.03496V6.07919H7.0788V4.12305ZM4.14453 8.03539H6.1007V9.99156H4.14455V8.03539H4.14453ZM7.0788 8.03539H9.03496V9.99156H7.0788V8.03539ZM4.14453 11.9477H6.1007V13.9039H4.14455V11.9477H4.14453ZM7.0788 11.9477H9.03496V13.9039H7.0788V11.9477ZM11.9692 11.9477H13.9254V13.9039H11.9692V11.9477Z" fill="#2BA6A8"/>
<path d="M16.3361 15.8321H15.8824V6.56892C15.8824 6.17682 15.7296 5.80814 15.4516 5.53164C15.1746 5.25462 14.8069 5.10178 14.4153 5.10178H10.992V2.65659C10.992 2.2645 10.8392 1.89581 10.5612 1.61931C10.2842 1.34229 9.91645 1.18945 9.52486 1.18945H3.65634C3.26473 1.18945 2.89601 1.34228 2.62 1.61882C2.34204 1.89532 2.18921 2.26402 2.18921 2.65658V15.8321H1.66484C1.39454 15.8321 1.17578 16.0508 1.17578 16.3212C1.17578 16.5915 1.39452 16.8102 1.66484 16.8102H16.3361C16.6064 16.8102 16.8252 16.5915 16.8252 16.3212C16.8252 16.0508 16.6064 15.8321 16.3361 15.8321ZM14.4153 6.0799C14.5461 6.0799 14.6684 6.131 14.761 6.22365C14.8537 6.31581 14.9043 6.43855 14.9043 6.56892V15.8321H10.992V6.0799H14.4153ZM3.1673 2.65659C3.1673 2.52576 3.21792 2.40301 3.31056 2.31083C3.40321 2.21865 3.52548 2.16755 3.65634 2.16755H9.52486C9.6557 2.16755 9.77797 2.21865 9.87063 2.31131C9.96328 2.40347 10.0139 2.5262 10.0139 2.65658V15.8321H3.1673V2.65659Z" fill="#2BA6A8"/>
</svg>
