<svg width="20" height="20" viewBox="0 0 20 20" fill="none" xmlns="http://www.w3.org/2000/svg">
<path fill-rule="evenodd" clip-rule="evenodd" d="M8.31532 2.95991C8.37308 2.55476 8.57516 2.18404 8.88443 1.91585C9.1937 1.64766 9.58939 1.5 9.99884 1.5C10.4083 1.5 10.804 1.64766 11.1133 1.91585C11.4225 2.18404 11.6246 2.55476 11.6824 2.95991L15.7013 5.30434C15.8916 5.14397 16.1149 5.02734 16.3553 4.96269C16.5957 4.89803 16.8474 4.88692 17.0926 4.93016C17.3378 4.97339 17.5705 5.0699 17.7742 5.21288C17.978 5.35586 18.1479 5.54182 18.2718 5.75762C18.3958 5.97341 18.4709 6.21379 18.4917 6.46176C18.5126 6.70973 18.4787 6.95924 18.3924 7.19269C18.3062 7.42613 18.1697 7.63779 17.9927 7.81274C17.8156 7.98768 17.6023 8.12164 17.3678 8.20513V11.7971C17.6026 11.8804 17.8163 12.0142 17.9937 12.1891C18.1711 12.364 18.3079 12.5758 18.3944 12.8094C18.4808 13.043 18.5149 13.2927 18.4941 13.5409C18.4733 13.7891 18.3982 14.0297 18.274 14.2457C18.1499 14.4617 17.9798 14.6478 17.7758 14.7908C17.5717 14.9338 17.3387 15.0302 17.0933 15.0732C16.8478 15.1163 16.5959 15.1048 16.3554 15.0398C16.1148 14.9747 15.8915 14.8576 15.7013 14.6968L11.6824 17.0401C11.6246 17.4452 11.4225 17.816 11.1133 18.0842C10.804 18.3523 10.4083 18.5 9.99884 18.5C9.58939 18.5 9.1937 18.3523 8.88443 18.0842C8.57516 17.816 8.37308 17.4452 8.31532 17.0401L4.29643 14.6968C4.10606 14.8572 3.88278 14.9738 3.64236 15.0384C3.40195 15.1031 3.15026 15.1142 2.90508 15.071C2.6599 15.0277 2.42721 14.9312 2.22344 14.7882C2.01968 14.6453 1.84981 14.4593 1.72583 14.2435C1.60186 14.0277 1.5268 13.7873 1.50597 13.5394C1.48513 13.2914 1.51903 13.0419 1.60526 12.8084C1.69149 12.575 1.82795 12.3633 2.005 12.1884C2.18206 12.0134 2.39539 11.8795 2.62992 11.796V8.204C2.39539 8.1205 2.18206 7.98655 2.005 7.81161C1.82795 7.63666 1.69149 7.42499 1.60526 7.19155C1.51903 6.95811 1.48513 6.70859 1.50597 6.46062C1.5268 6.21265 1.60186 5.97228 1.72583 5.75648C1.84981 5.54069 2.01968 5.35473 2.22344 5.21175C2.42721 5.06877 2.6599 4.97226 2.90508 4.92902C3.15026 4.88579 3.40195 4.8969 3.64236 4.96155C3.88278 5.02621 4.10606 5.14284 4.29643 5.30321L8.31532 2.95991ZM8.5704 4.12363L4.8678 6.28223C4.94387 6.68144 4.87431 7.09468 4.67173 7.44703C4.46916 7.79939 4.14698 8.06754 3.7636 8.20287V11.5297L8.63842 4.22108C8.61464 4.18977 8.59196 4.15764 8.5704 4.12476V4.12363ZM9.58051 4.84883L4.55831 12.3807C4.66034 12.5167 4.7431 12.6685 4.80092 12.8328H15.1968C15.2543 12.6704 15.3361 12.5176 15.4394 12.3796L10.4183 4.84996C10.1438 4.91946 9.8562 4.91946 9.58165 4.84996L9.58051 4.84883ZM11.3604 4.21994L16.2341 11.5297V8.204C15.8505 8.06864 15.5281 7.80032 15.3255 7.44772C15.1229 7.09512 15.0535 6.68161 15.1299 6.28223L11.4273 4.12363C11.4057 4.15651 11.383 4.18864 11.3593 4.21994H11.3604ZM14.7036 13.9659H5.29293L8.56927 15.8764C8.72319 15.6373 8.93467 15.4407 9.18434 15.3046C9.434 15.1684 9.71386 15.0971 9.99827 15.0971C10.2827 15.0971 10.5625 15.1684 10.8122 15.3046C11.0619 15.4407 11.2734 15.6373 11.4273 15.8764L14.7036 13.9659ZM9.99884 2.63471C9.84851 2.63471 9.70433 2.6944 9.59802 2.80065C9.49172 2.9069 9.432 3.05101 9.432 3.20127C9.432 3.35153 9.49172 3.49564 9.59802 3.60189C9.70433 3.70814 9.84851 3.76783 9.99884 3.76783C10.1492 3.76783 10.2934 3.70814 10.3997 3.60189C10.506 3.49564 10.5657 3.35153 10.5657 3.20127C10.5657 3.05101 10.506 2.9069 10.3997 2.80065C10.2934 2.6944 10.1492 2.63471 9.99884 2.63471ZM3.19676 6.03407C3.04642 6.03407 2.90225 6.09376 2.79594 6.20002C2.68964 6.30627 2.62992 6.45037 2.62992 6.60063C2.62992 6.7509 2.68964 6.895 2.79594 7.00125C2.90225 7.1075 3.04642 7.16719 3.19676 7.16719C3.34709 7.16719 3.49127 7.1075 3.59758 7.00125C3.70388 6.895 3.7636 6.7509 3.7636 6.60063C3.7636 6.45037 3.70388 6.30627 3.59758 6.20002C3.49127 6.09376 3.34709 6.03407 3.19676 6.03407ZM16.8009 6.03407C16.6506 6.03407 16.5064 6.09376 16.4001 6.20002C16.2938 6.30627 16.2341 6.45037 16.2341 6.60063C16.2341 6.7509 16.2938 6.895 16.4001 7.00125C16.5064 7.1075 16.6506 7.16719 16.8009 7.16719C16.9513 7.16719 17.0954 7.1075 17.2017 7.00125C17.308 6.895 17.3678 6.7509 17.3678 6.60063C17.3678 6.45037 17.308 6.30627 17.2017 6.20002C17.0954 6.09376 16.9513 6.03407 16.8009 6.03407ZM3.19676 12.8328C3.04642 12.8328 2.90225 12.8925 2.79594 12.9987C2.68964 13.105 2.62992 13.2491 2.62992 13.3994C2.62992 13.5496 2.68964 13.6937 2.79594 13.8C2.90225 13.9062 3.04642 13.9659 3.19676 13.9659C3.34709 13.9659 3.49127 13.9062 3.59758 13.8C3.70388 13.6937 3.7636 13.5496 3.7636 13.3994C3.7636 13.2491 3.70388 13.105 3.59758 12.9987C3.49127 12.8925 3.34709 12.8328 3.19676 12.8328ZM16.8009 12.8328C16.6506 12.8328 16.5064 12.8925 16.4001 12.9987C16.2938 13.105 16.2341 13.2491 16.2341 13.3994C16.2341 13.5496 16.2938 13.6937 16.4001 13.8C16.5064 13.9062 16.6506 13.9659 16.8009 13.9659C16.9513 13.9659 17.0954 13.9062 17.2017 13.8C17.308 13.6937 17.3678 13.5496 17.3678 13.3994C17.3678 13.2491 17.308 13.105 17.2017 12.9987C17.0954 12.8925 16.9513 12.8328 16.8009 12.8328ZM9.99884 16.2322C9.84851 16.2322 9.70433 16.2919 9.59802 16.3981C9.49172 16.5044 9.432 16.6485 9.432 16.7987C9.432 16.949 9.49172 17.0931 9.59802 17.1994C9.70433 17.3056 9.84851 17.3653 9.99884 17.3653C10.1492 17.3653 10.2934 17.3056 10.3997 17.1994C10.506 17.0931 10.5657 16.949 10.5657 16.7987C10.5657 16.6485 10.506 16.5044 10.3997 16.3981C10.2934 16.2919 10.1492 16.2322 9.99884 16.2322Z" fill="#C7E4FF"/>
</svg>
