<svg width="20" height="20" viewBox="0 0 20 20" fill="none" xmlns="http://www.w3.org/2000/svg">
<path d="M3.07692 2.2001V1.6001C2.92391 1.6001 2.77717 1.66331 2.66898 1.77583C2.56078 1.88836 2.5 2.04097 2.5 2.2001H3.07692ZM3.07692 17.8001H2.5C2.5 17.9592 2.56078 18.1118 2.66898 18.2244C2.77717 18.3369 2.92391 18.4001 3.07692 18.4001V17.8001ZM5.96154 1.6001V18.4001H7.11538V1.6001H5.96154ZM3.07692 2.8001H14.6154V1.6001H3.07692V2.8001ZM16.3462 4.6001V15.4001H17.5V4.6001H16.3462ZM14.6154 17.2001H3.07692V18.4001H14.6154V17.2001ZM3.65385 17.8001V2.2001H2.5V17.8001H3.65385ZM16.3462 15.4001C16.3462 15.8775 16.1638 16.3353 15.8392 16.6729C15.5146 17.0105 15.0744 17.2001 14.6154 17.2001V18.4001C15.3804 18.4001 16.1141 18.084 16.6551 17.5214C17.1961 16.9588 17.5 16.1957 17.5 15.4001H16.3462ZM14.6154 2.8001C15.0744 2.8001 15.5146 2.98974 15.8392 3.32731C16.1638 3.66487 16.3462 4.12271 16.3462 4.6001H17.5C17.5 3.80445 17.1961 3.04139 16.6551 2.47878C16.1141 1.91617 15.3804 1.6001 14.6154 1.6001V2.8001ZM9.42308 7.6001H14.0385V6.4001H9.42308V7.6001Z" fill="white"/>
</svg>
