<svg width="24" height="24" viewBox="0 0 24 24" fill="none" xmlns="http://www.w3.org/2000/svg">
    <path d="M14.8277 22L14.8248 20.5713L20.5092 20.5596L20.5379 14.8454L21.9665 14.8526L21.9307 21.9854L14.8277 22ZM9.10787 21.9983L2.00498 21.9707L2.01058 14.8484L3.43921 14.8495L3.43472 20.5475L9.11343 20.5696L9.10787 21.9983ZM2.01058 9.13115L2 2L9.11475 2.04083L9.10656 3.46955L3.43077 3.43698L3.43921 9.12905L2.01058 9.13115ZM20.5714 9.11246L20.5566 3.46473L14.8715 3.46957L14.8703 2.04083L21.9815 2.03478L22 9.10874L20.5714 9.11246ZM9.57477 11.9593C9.57477 12.5118 9.45583 13.0062 9.21797 13.4423C8.9801 13.8784 8.64757 14.2173 8.22043 14.4591C7.79325 14.7008 7.31499 14.8216 6.78553 14.8216C6.26885 14.8216 5.79886 14.7046 5.37556 14.4705C4.95222 14.2365 4.62292 13.9078 4.38762 13.4844C4.15227 13.0611 4.03466 12.5822 4.03466 12.0475C4.03466 11.4873 4.15359 10.9834 4.39146 10.5358C4.62932 10.0882 4.96311 9.74218 5.39281 9.49789C5.82252 9.25364 6.31104 9.13146 6.85841 9.13146C7.38531 9.13146 7.85653 9.24848 8.27222 9.48255C8.68784 9.7166 9.00885 10.0504 9.23522 10.484C9.46159 10.9175 9.57477 11.4093 9.57477 11.9593ZM7.81758 12.0053C7.81758 11.5525 7.73061 11.1957 7.55667 10.9348C7.38272 10.6739 7.14483 10.5434 6.84305 10.5434C6.51311 10.5434 6.25604 10.6688 6.07188 10.9195C5.88772 11.1702 5.79564 11.5244 5.79564 11.9823C5.79564 12.4299 5.88708 12.7791 6.06996 13.0298C6.2528 13.2805 6.50159 13.4058 6.8162 13.4058C7.00804 13.4058 7.18068 13.3495 7.33414 13.237C7.48761 13.1245 7.60654 12.9633 7.69094 12.7535C7.77537 12.5438 7.81758 12.2944 7.81758 12.0053ZM14.4473 14.5761C13.992 14.7398 13.4664 14.8216 12.8704 14.8216C12.2847 14.8216 11.7795 14.7097 11.355 14.4859C10.9304 14.2621 10.6061 13.9436 10.3824 13.5305C10.1585 13.1174 10.0467 12.641 10.0467 12.1013C10.0467 11.5206 10.172 11.0039 10.4227 10.5511C10.6733 10.0984 11.0275 9.74861 11.4854 9.50173C11.9432 9.25489 12.4701 9.13146 13.0661 9.13146C13.5418 9.13146 14.0023 9.18901 14.4473 9.30411V10.8351C14.2938 10.743 14.111 10.6714 13.8987 10.6202C13.6876 10.5692 13.4712 10.5434 13.2541 10.5434C12.8039 10.5434 12.449 10.6726 12.1895 10.931C11.9298 11.1894 11.8 11.5398 11.8 11.9823C11.8 12.4222 11.9298 12.7695 12.1895 13.024C12.449 13.2785 12.7963 13.4058 13.2311 13.4058C13.6326 13.4058 14.038 13.3035 14.4473 13.0988V14.5761ZM18.1574 14.7257L17.7468 13.5401C17.6675 13.3074 17.5646 13.1245 17.438 12.9914C17.3114 12.8584 17.1739 12.7919 17.0255 12.7919H16.9603V14.7257H15.3029V9.22352H17.5051C18.275 9.22352 18.8434 9.34954 19.2105 9.60147C19.5775 9.85344 19.761 10.2314 19.761 10.7353C19.761 11.1139 19.6542 11.4311 19.4407 11.6868C19.2271 11.9426 18.9093 12.1281 18.4873 12.2432V12.2585C18.72 12.3302 18.9137 12.4466 19.0685 12.6077C19.2233 12.7689 19.362 13.0081 19.4848 13.3252L20.0257 14.7257H18.1574ZM18.0001 10.9694C18.0001 10.7852 17.9438 10.6394 17.8313 10.5319C17.7187 10.4245 17.5422 10.3708 17.3018 10.3708H16.9603V11.6293H17.2596C17.4821 11.6293 17.6611 11.5666 17.7967 11.4413C17.9323 11.316 18.0001 11.1587 18.0001 10.9694Z" fill="#517DFF"/>
</svg>
