<svg width="20" height="20" viewBox="0 0 20 20" fill="none" xmlns="http://www.w3.org/2000/svg">
<path d="M15 18.534L14.688 18.898C14.7615 18.9528 14.8501 18.9871 14.9436 18.997C15.0371 19.0069 15.1317 18.992 15.2165 18.954C15.3013 18.916 15.3729 18.8564 15.423 18.7821C15.4732 18.7078 15.4999 18.6218 15.5 18.534H15ZM15 5.46669H15.5V5H15V5.46669ZM5 5.46669V5H4.5V5.46669H5ZM5 18.534H4.5C4.50013 18.6218 4.52681 18.7078 4.57697 18.7821C4.62712 18.8564 4.69872 18.916 4.78353 18.954C4.86834 18.992 4.96292 19.0069 5.0564 18.997C5.14989 18.9871 5.23848 18.9528 5.312 18.898L5 18.534ZM10 14.8005L10.312 14.4364C10.2234 14.3704 10.1134 14.3344 10 14.3344C9.88662 14.3344 9.7766 14.3704 9.688 14.4364L10 14.8005ZM15.5 18.534V5.46669H14.5V18.534H15.5ZM4.5 5.46669V18.534H5.5V5.46669H4.5ZM5.312 18.898L10.312 15.1645L9.688 14.4364L4.688 18.17L5.312 18.898ZM9.688 15.1645L14.688 18.898L15.312 18.17L10.312 14.4364L9.688 15.1645ZM15 5H5V5.93338H15V5Z" fill="#C7E4FF"/>
<rect x="5" y="2.5" width="10" height="3" stroke="#C7E4FF"/>
</svg>
