<svg width="18" height="18" viewBox="0 0 18 18" fill="none" xmlns="http://www.w3.org/2000/svg">
    <g clip-path="url(#clip0_393_5635)">
        <path d="M8.99935 17.3327C4.39697 17.3327 0.666016 13.6017 0.666016 8.99935C0.666016 4.39697 4.39697 0.666016 8.99935 0.666016C13.6017 0.666016 17.3327 4.39697 17.3327 8.99935C17.3327 13.6017 13.6017 17.3327 8.99935 17.3327ZM7.09103 15.3888C6.28887 13.6876 5.79712 11.8112 5.68877 9.83268H2.38426C2.71435 12.4798 4.59634 14.6449 7.09103 15.3888ZM7.35827 9.83268C7.4836 11.865 8.06418 13.7741 8.99935 15.4593C9.93451 13.7741 10.5151 11.865 10.6404 9.83268H7.35827ZM15.6144 9.83268H12.3099C12.2016 11.8112 11.7098 13.6876 10.9077 15.3888C13.4023 14.6449 15.2843 12.4798 15.6144 9.83268ZM2.38426 8.16602H5.68877C5.79712 6.18749 6.28887 4.31107 7.09103 2.60982C4.59634 3.35379 2.71435 5.51893 2.38426 8.16602ZM7.35827 8.16602H10.6404C10.5151 6.1337 9.93451 4.22456 8.99935 2.53934C8.06418 4.22456 7.4836 6.1337 7.35827 8.16602ZM10.9077 2.60982C11.7098 4.31107 12.2016 6.18749 12.3099 8.16602H15.6144C15.2843 5.51893 13.4023 3.35379 10.9077 2.60982Z" fill="#3C404B"/>
    </g>
    <defs>
        <clipPath id="clip0_393_5635">
            <rect width="18" height="18" fill="white"/>
        </clipPath>
    </defs>
</svg>
