<svg width="18" height="18" viewBox="0 0 18 18" fill="none" xmlns="http://www.w3.org/2000/svg">
<path d="M12.4286 1H5.57143C5.15466 1 4.75496 1.19787 4.46026 1.55007C4.16556 1.90227 4 2.37996 4 2.87805V3.56098C4 3.69682 4.04515 3.8271 4.12553 3.92315C4.2059 4.01921 4.31491 4.07317 4.42857 4.07317H10.4286L10.4751 4.07454C10.8434 4.09639 11.1429 4.47132 11.1429 4.92683V14.4878C11.1429 14.6236 11.188 14.7539 11.2684 14.85C11.3488 14.946 11.4578 15 11.5714 15H12.4286C12.6349 15 12.8393 14.9514 13.0299 14.857C13.2206 14.7627 13.3938 14.6243 13.5397 14.4499C13.6857 14.2755 13.8014 14.0685 13.8804 13.8407C13.9594 13.6128 14 13.3686 14 13.122V2.87805C14 2.63142 13.9594 2.38721 13.8804 2.15935C13.8014 1.9315 13.6857 1.72446 13.5397 1.55007C13.3938 1.37567 13.2206 1.23734 13.0299 1.14296C12.8393 1.04858 12.6349 1 12.4286 1ZM5.57143 2.02439H12.4286C12.5224 2.02439 12.6153 2.04647 12.7019 2.08937C12.7886 2.13227 12.8673 2.19515 12.9336 2.27442C13 2.35369 13.0526 2.4478 13.0885 2.55137C13.1244 2.65494 13.1429 2.76594 13.1429 2.87805V13.122L13.1414 13.178C13.1295 13.3942 13.0493 13.597 12.9169 13.7451C12.7845 13.8932 12.6099 13.9756 12.4286 13.9756H12V4.92683C12 4.44489 11.8449 3.9814 11.567 3.63227C11.289 3.28314 10.9093 3.07509 10.5066 3.05117L10.4391 3.04878H4.85714V2.87805C4.85714 2.65164 4.9324 2.43451 5.06635 2.27442C5.20031 2.11433 5.38199 2.02439 5.57143 2.02439Z" fill="#2BA6A8"/>
<path d="M10.2714 3H2.72857C2.27013 3 1.83046 3.19787 1.50629 3.55007C1.18212 3.90227 1 4.37996 1 4.87805V15.122C1 15.62 1.18212 16.0977 1.50629 16.4499C1.83046 16.8021 2.27013 17 2.72857 17H10.2714C10.4984 17 10.7232 16.9514 10.9329 16.857C11.1426 16.7627 11.3332 16.6243 11.4937 16.4499C11.6542 16.2755 11.7816 16.0685 11.8684 15.8407C11.9553 15.6128 12 15.3686 12 15.122V4.87805C12 4.63142 11.9553 4.38721 11.8684 4.15935C11.7816 3.9315 11.6542 3.72446 11.4937 3.55007C11.3332 3.37567 11.1426 3.23734 10.9329 3.14296C10.7232 3.04858 10.4984 3 10.2714 3ZM2.72857 4.02439H10.2714C10.4798 4.02439 10.6797 4.11433 10.827 4.27442C10.9744 4.43451 11.0571 4.65164 11.0571 4.87805V15.122C11.0571 15.3484 10.9744 15.5655 10.827 15.7256C10.6797 15.8857 10.4798 15.9756 10.2714 15.9756H2.72857C2.52019 15.9756 2.32034 15.8857 2.17299 15.7256C2.02564 15.5655 1.94286 15.3484 1.94286 15.122V4.87805C1.94286 4.65164 2.02564 4.43451 2.17299 4.27442C2.32034 4.11433 2.52019 4.02439 2.72857 4.02439Z" fill="#2BA6A8"/>
<path d="M9.65691 9.73491C9.79847 9.73498 9.93457 9.78951 10.037 9.88719C10.1395 9.98488 10.2004 10.1182 10.2072 10.2596C10.214 10.401 10.1661 10.5396 10.0736 10.6467C9.98096 10.7537 9.85072 10.8211 9.70983 10.8347L9.65691 10.8373H3.77749C3.63593 10.8372 3.49983 10.7827 3.39739 10.685C3.29494 10.5873 3.234 10.454 3.2272 10.3126C3.2204 10.1712 3.26825 10.0326 3.36085 9.92555C3.45344 9.81848 3.58368 9.75114 3.72457 9.73748L3.77749 9.73491H9.65691ZM6.7172 13.0421C6.85875 13.0422 6.99485 13.0967 7.0973 13.1944C7.19974 13.2921 7.26068 13.4254 7.26749 13.5668C7.27429 13.7082 7.22643 13.8468 7.13384 13.9538C7.04124 14.0609 6.91101 14.1282 6.77011 14.1419L6.7172 14.1445H3.77749C3.63593 14.1444 3.49983 14.0899 3.39739 13.9922C3.29494 13.8945 3.234 13.7612 3.2272 13.6198C3.2204 13.4784 3.26825 13.3398 3.36085 13.2327C3.45344 13.1257 3.58368 13.0583 3.72457 13.0447L3.77749 13.0421H6.7172ZM9.65691 6.42773C9.79847 6.4278 9.93457 6.48233 10.037 6.58001C10.1395 6.6777 10.2004 6.81105 10.2072 6.95244C10.214 7.09383 10.1661 7.23242 10.0736 7.33949C9.98096 7.44656 9.85072 7.5139 9.70983 7.52755L9.65691 7.53013H3.77749C3.63593 7.53006 3.49983 7.47553 3.39739 7.37785C3.29494 7.28016 3.234 7.14681 3.2272 7.00542C3.2204 6.86403 3.26825 6.72544 3.36085 6.61837C3.45344 6.51131 3.58368 6.44397 3.72457 6.43031L3.77749 6.42773H9.65691Z" fill="#2BA6A8"/>
</svg>
