<svg width="24" height="24" viewBox="0 0 24 24" xmlns="http://www.w3.org/2000/svg">
<path d="M15.0037 22.5073L15.0007 21.0073L20.969 20.9951L20.9992 14.9958L22.4992 15.0034L22.4615 22.492L15.0037 22.5073ZM8.99812 22.5055L1.54038 22.4766L1.54627 14.999L3.04627 15.0002L3.04155 20.9824L9.00396 21.0055L8.99812 22.5055ZM1.54627 8.99659L1.53516 1.50977L9.00534 1.55263L8.99674 3.05261L3.03741 3.01841L3.04627 8.99439L1.54627 8.99659ZM21.0343 8.97698L21.0188 3.04755L15.0497 3.05263L15.0484 1.55263L22.5149 1.54628L22.5343 8.97306L21.0343 8.97698ZM9.48834 11.9658C9.48834 12.5459 9.36347 13.0649 9.11372 13.5227C8.86397 13.9806 8.51482 14.3365 8.06634 14.5902C7.61782 14.844 7.11567 14.9709 6.55976 14.9709C6.01727 14.9709 5.5238 14.848 5.07935 14.6023C4.63486 14.3566 4.28911 14.0115 4.04205 13.567C3.79495 13.1226 3.67146 12.6197 3.67146 12.0584C3.67146 11.4703 3.79634 10.9413 4.04609 10.4713C4.29584 10.0014 4.6463 9.6381 5.09747 9.38163C5.54864 9.1252 6.06157 8.99692 6.63628 8.99692C7.1895 8.99692 7.68427 9.11978 8.12072 9.36552C8.5571 9.61124 8.89416 9.96173 9.13184 10.4169C9.36951 10.8721 9.48834 11.3884 9.48834 11.9658ZM7.64337 12.0141C7.64337 11.5388 7.55205 11.1641 7.36943 10.8902C7.18678 10.6163 6.93701 10.4793 6.62016 10.4793C6.27373 10.4793 6.00382 10.6109 5.81046 10.8741C5.6171 11.1373 5.52042 11.5093 5.52042 11.9899C5.52042 12.4599 5.61642 12.8265 5.80844 13.0897C6.00042 13.3529 6.26163 13.4845 6.59196 13.4845C6.79338 13.4845 6.97465 13.4254 7.13578 13.3072C7.29691 13.1891 7.42179 13.0199 7.51041 12.7997C7.59905 12.5794 7.64337 12.3176 7.64337 12.0141ZM14.6043 14.7131C14.1263 14.8849 13.5744 14.9709 12.9487 14.9709C12.3337 14.9709 11.8032 14.8534 11.3575 14.6184C10.9117 14.3835 10.5712 14.0491 10.3363 13.6154C10.1013 13.1817 9.98381 12.6815 9.98381 12.1148C9.98381 11.5053 10.1154 10.9627 10.3786 10.4874C10.6418 10.0121 11.0137 9.64485 11.4944 9.38566C11.9751 9.12651 12.5284 8.99692 13.1541 8.99692C13.6536 8.99692 14.137 9.05734 14.6043 9.17819V10.7855C14.4432 10.6888 14.2511 10.6136 14.0283 10.5599C13.8067 10.5063 13.5795 10.4793 13.3515 10.4793C12.8788 10.4793 12.5062 10.615 12.2336 10.8862C11.961 11.1575 11.8248 11.5253 11.8248 11.9899C11.8248 12.4518 11.961 12.8164 12.2336 13.0836C12.5062 13.3508 12.8708 13.4844 13.3273 13.4844C13.7489 13.4844 14.1746 13.377 14.6043 13.1622V14.7131ZM18.4997 14.8702L18.0687 13.6255C17.9854 13.3811 17.8773 13.1891 17.7444 13.0494C17.6115 12.9098 17.4671 12.8399 17.3113 12.8399H17.2428V14.8702H15.5026V9.09358H17.8149C18.6232 9.09358 19.2201 9.22588 19.6054 9.49037C19.9908 9.75491 20.1835 10.1517 20.1835 10.6807C20.1835 11.0782 20.0714 11.4112 19.8471 11.6798C19.6229 11.9483 19.2892 12.143 18.8461 12.2639V12.28C19.0905 12.3552 19.2939 12.4774 19.4564 12.6466C19.6189 12.8158 19.7645 13.0669 19.8934 13.3999L20.4614 14.8702H18.4997ZM18.3345 10.9265C18.3345 10.7331 18.2755 10.5801 18.1573 10.4672C18.0391 10.3545 17.8538 10.2981 17.6014 10.2981H17.2429V11.6193H17.5571C17.7907 11.6193 17.9787 11.5536 18.121 11.422C18.2634 11.2904 18.3345 11.1253 18.3345 10.9265Z" >
</svg>
