<svg width="18" height="18" viewBox="0 0 22 25" fill="none" xmlns="http://www.w3.org/2000/svg">
<path d="M18.2036 1.36719C18.5765 1.36721 18.936 1.50611 19.212 1.75681C19.4881 2.00751 19.6608 2.35203 19.6966 2.72319L19.7036 2.86719V8.43619C19.7031 8.69098 19.6053 8.93596 19.4303 9.12111C19.2552 9.30625 19.0161 9.4176 18.7617 9.4324C18.5074 9.44721 18.2569 9.36436 18.0616 9.20077C17.8662 9.03718 17.7407 8.8052 17.7106 8.55219L17.7036 8.43619V3.36719H3.70361V17.3672H7.75961C8.00472 17.367 8.24137 17.4568 8.42461 17.6196C8.60786 17.7824 8.72494 18.0068 8.75361 18.2502L8.75961 18.3672C8.75958 18.6121 8.66966 18.8485 8.5069 19.0316C8.34414 19.2146 8.11986 19.3315 7.87661 19.3602L7.75961 19.3672H3.20361C2.83073 19.3672 2.47122 19.2283 2.19519 18.9776C1.91917 18.7269 1.74641 18.3823 1.71061 18.0112L1.70361 17.8672V2.86719C1.70363 2.4943 1.84253 2.1348 2.09323 1.85877C2.34393 1.58274 2.68845 1.40998 3.05961 1.37419L3.20361 1.36719H18.2036Z" fill="#A1ADCC"/>
<rect x="11.4074" y="15.6039" width="11.2189" height="7.52461" rx="1.15" stroke="#A1ADCC" stroke-width="1.7"/>
<path d="M14.2448 12.3672C14.2448 11.7321 14.7596 11.2172 15.3948 11.2172H18.6389C19.274 11.2172 19.7889 11.7321 19.7889 12.3672V15.5863H14.2448V12.3672Z" stroke="#A1ADCC" stroke-width="1.7"/>
<path d="M15.8516 19.3665C15.8516 19.6755 15.9743 19.9719 16.1929 20.1904C16.4114 20.409 16.7078 20.5317 17.0168 20.5317C17.3259 20.5317 17.6223 20.409 17.8408 20.1904C18.0594 19.9719 18.1821 19.6755 18.1821 19.3665C18.1821 19.0574 18.0594 18.761 17.8408 18.5425C17.6223 18.3239 17.3259 18.2012 17.0168 18.2012C16.7078 18.2012 16.4114 18.3239 16.1929 18.5425C15.9743 18.761 15.8516 19.0574 15.8516 19.3665Z" fill="#A1ADCC"/>
<path d="M7.21606 11.8145L10.2488 11.8145" stroke="#A1ADCC" stroke-width="2" stroke-linecap="round"/>
<path d="M7.21606 7.23047L14.292 7.23047" stroke="#A1ADCC" stroke-width="2" stroke-linecap="round"/>
</svg>
