<svg width="18" height="18" viewBox="0 0 18 18" fill="none" xmlns="http://www.w3.org/2000/svg">
<path d="M5.00977 5.13301H11.7949C11.9109 5.13301 12.0059 5.0416 12.0059 4.9291V4.21367C12.0059 4.10117 11.9109 4.00977 11.7949 4.00977H5.00977C4.89375 4.00977 4.79883 4.10117 4.79883 4.21367V4.9291C4.79883 5.0416 4.89375 5.13301 5.00977 5.13301ZM4.79883 7.7416C4.79883 7.8541 4.89375 7.94551 5.00977 7.94551H9.05273C9.16875 7.94551 9.26367 7.8541 9.26367 7.7416V7.02617C9.26367 6.91367 9.16875 6.82227 9.05273 6.82227H5.00977C4.89375 6.82227 4.79883 6.91367 4.79883 7.02617V7.7416ZM12.6932 13.6145C12.9604 13.1697 13.1133 12.6512 13.1133 12.0939C13.1133 10.4627 11.7914 9.14082 10.1602 9.14082C8.52891 9.14082 7.20703 10.4627 7.20703 12.0939C7.20703 13.7252 8.52891 15.0471 10.1602 15.0471C10.8158 15.0471 11.4205 14.8344 11.9109 14.4723L13.5123 16.0736C13.5949 16.1563 13.7285 16.1563 13.8111 16.0736L14.3332 15.5516C14.4158 15.4689 14.4158 15.3354 14.3332 15.2527L12.6932 13.6145ZM8.33203 12.0939C8.33203 11.0867 9.15293 10.2658 10.1602 10.2658C11.1674 10.2658 11.9883 11.0867 11.9883 12.0939C11.9883 13.1012 11.1674 13.9221 10.1602 13.9221C9.15293 13.9221 8.33203 13.1012 8.33203 12.0939Z" fill="#2BA6A8"/>
<path d="M14.0361 1.08105H2.78613C2.47676 1.08105 2.22363 1.33418 2.22363 1.64355V16.2686C2.22363 16.5779 2.47676 16.8311 2.78613 16.8311H8.63086C8.78555 16.8311 8.91211 16.7045 8.91211 16.5498V15.8467C8.91211 15.692 8.78555 15.5654 8.63086 15.5654H3.48926V2.34668H13.333V9.52734C13.333 9.68203 13.4596 9.80859 13.6143 9.80859H14.3174C14.4721 9.80859 14.5986 9.68203 14.5986 9.52734V1.64355C14.5986 1.33418 14.3455 1.08105 14.0361 1.08105Z" fill="#2BA6A8"/>
</svg>
