<svg width="24" height="25" viewBox="0 0 24 25" xmlns="http://www.w3.org/2000/svg">
<path d="M15.2657 18.7206C15.2657 18.4686 15.0839 18.2645 14.8601 18.2645H9.18255C8.95872 18.2645 8.77701 18.4686 8.77701 18.7206V20.5446H4.72148V21.9125H19.3208V20.5446H15.2657V18.7206ZM21.1416 2.10156H2.90116C2.14546 2.10156 1.5332 2.71337 1.5332 3.46909V16.2373C1.5332 16.9924 2.14546 17.6053 2.90116 17.6053H21.1416C21.8973 17.6053 22.5096 16.9925 22.5096 16.2373V3.46909C22.5096 2.71335 21.8973 2.10156 21.1416 2.10156ZM21.1416 15.7804C21.1416 16.032 20.9371 16.2363 20.6856 16.2363H3.3572C3.10518 16.2363 2.90127 16.032 2.90127 15.7804V3.92467C2.90127 3.67255 3.10518 3.46865 3.3572 3.46865H20.6856C20.9371 3.46865 21.1416 3.67255 21.1416 3.92467V15.7804H21.1416ZM16.4701 14.908H18.9372V7.72537H16.4701V14.908ZM12.5229 14.908H14.9899V5.51533H12.5229V14.908ZM5.12172 14.908H7.58875V12.1455H5.12172V14.908ZM8.57556 14.908H11.0426V9.93491H8.57556V14.908Z"/>
</svg>
