<svg width="20" height="20" viewBox="0 0 20 20" fill="none" xmlns="http://www.w3.org/2000/svg">
<path d="M18.2131 9.99987C18.2131 11.9661 14.4942 13.5598 9.90661 13.5598C5.31904 13.5598 1.6001 11.9661 1.6001 9.99987C1.6001 8.0336 5.31904 6.43994 9.90661 6.43994C14.4942 6.43994 18.2131 8.0336 18.2131 9.99987Z" stroke="#C7E4FF"/>
<path d="M5.95035 17.3038C7.67929 18.2412 10.8512 15.7291 13.037 11.6957C15.2216 7.66112 15.5918 3.63247 13.8629 2.69621C12.134 1.75876 8.96205 4.27088 6.77625 8.30429C4.59164 12.3389 4.22141 16.3675 5.95035 17.3038Z" stroke="#C7E4FF"/>
<path d="M13.8629 17.3038C12.134 18.2412 8.96205 15.7291 6.77625 11.6957C4.59164 7.66112 4.22141 3.63247 5.95035 2.69621C7.67929 1.75876 10.8512 4.27088 13.037 8.30429C15.2216 12.3389 15.5918 16.3675 13.8629 17.3038Z" stroke="#C7E4FF"/>
<path d="M8.71997 10.0001C8.71997 10.3148 8.84499 10.6167 9.06753 10.8392C9.29007 11.0617 9.5919 11.1868 9.90661 11.1868C10.2213 11.1868 10.5232 11.0617 10.7457 10.8392C10.9682 10.6167 11.0933 10.3148 11.0933 10.0001C11.0933 9.6854 10.9682 9.38358 10.7457 9.16104C10.5232 8.9385 10.2213 8.81348 9.90661 8.81348C9.5919 8.81348 9.29007 8.9385 9.06753 9.16104C8.84499 9.38358 8.71997 9.6854 8.71997 10.0001Z" stroke="#C7E4FF"/>
</svg>
