<svg width="50" height="50" viewBox="10 10 20 20" xmlns="http://www.w3.org/2000/svg">
<g clip-path="url(#clip0_929_2279)">
<path d="M29.5 13C29.8729 13 30.2324 13.1389 30.5084 13.3896C30.7844 13.6403 30.9572 13.9848 30.993 14.356L31 14.5V20.069C30.9995 20.3238 30.9017 20.5688 30.7266 20.7539C30.5516 20.9391 30.3125 21.0504 30.0581 21.0652C29.8037 21.08 29.5533 20.9972 29.358 20.8336C29.1626 20.67 29.0371 20.438 29.007 20.185L29 20.069V15H15V29H19.056C19.3011 28.9998 19.5378 29.0896 19.721 29.2524C19.9042 29.4152 20.0213 29.6396 20.05 29.883L20.056 30C20.056 30.2449 19.966 30.4813 19.8033 30.6644C19.6405 30.8474 19.4163 30.9643 19.173 30.993L19.056 31H14.5C14.1271 31 13.7676 30.8611 13.4916 30.6104C13.2156 30.3597 13.0428 30.0152 13.007 29.644L13 29.5V14.5C13 14.1271 13.1389 13.7676 13.3896 13.4916C13.6403 13.2156 13.9848 13.0428 14.356 13.007L14.5 13H29.5Z" />
<path d="M16.75 17H21.25C21.75 17 22 17.25 22 17.75C22 18.25 21.75 18.5 21.25 18.5H16.75C16.25 18.5 16 18.25 16 17.75C16 17.25 16.25 17 16.75 17Z" />
<path d="M16.5 20H19.5C19.8333 20 20 20.1667 20 20.5C20 20.8333 19.8333 21 19.5 21H16.5C16.1667 21 16 20.8333 16 20.5C16 20.1667 16.1667 20 16.5 20Z" />
<path d="M16.375 23H18.625C18.875 23 19 23.1667 19 23.5C19 23.8333 18.875 24 18.625 24H16.375C16.125 24 16 23.8333 16 23.5C16 23.1667 16.125 23 16.375 23Z" />
<path d="M25.5 9C25.8729 9.00002 26.2324 9.13892 26.5084 9.38962C26.7844 9.64032 26.9572 9.98484 26.993 10.356L27 10.5V13.758H25V11H11V25H13.82V27H10.5C10.1271 27 9.76761 26.8611 9.49158 26.6104C9.21555 26.3597 9.0428 26.0152 9.007 25.644L9 25.5V10.5C9.00002 10.1271 9.13892 9.76761 9.38962 9.49158C9.64032 9.21555 9.98484 9.0428 10.356 9.007L10.5 9H25.5Z" />
<circle cx="25" cy="22" r="3" stroke-width="2"/>
<path d="M31.7608 31.857C31.8079 32.0212 31.7712 32.1611 31.652 32.2912C31.5185 32.437 31.2833 32.5556 31 32.5556H25L19 32.5556C18.7167 32.5556 18.4815 32.437 18.348 32.2912C18.2288 32.1611 18.1921 32.0212 18.2392 31.857C18.5509 30.7694 19.1611 29.7604 20.0298 28.94C21.3387 27.7038 23.1256 27 25 27C26.8744 27 28.6613 27.7038 29.9702 28.94C30.8389 29.7604 31.4491 30.7694 31.7608 31.857Z" stroke-width="2"/>
</g>
</svg>
