<svg width="24" height="24" viewBox="0 0 24 24" fill="none" xmlns="http://www.w3.org/2000/svg">
    <mask id="path-1-inside-1_282_9140" fill="white">
        <rect x="2" y="4" width="20" height="16" rx="1"/>
    </mask>
    <rect x="2" y="4" width="20" height="16" rx="1" stroke="white" stroke-width="3.2" mask="url(#path-1-inside-1_282_9140)"/>
    <path d="M6.83678 15.0124C6.06078 15.0124 5.22878 14.7244 4.61278 14.1564L5.42078 13.1724C5.84478 13.5324 6.39678 13.7804 6.86878 13.7804C7.39678 13.7804 7.64478 13.5804 7.64478 13.2604C7.64478 12.9164 7.31678 12.8044 6.80478 12.5884L6.04478 12.2684C5.42078 12.0204 4.83678 11.5004 4.83678 10.6364C4.83678 9.63639 5.73278 8.83639 6.99678 8.83639C7.68478 8.83639 8.41278 9.10039 8.93278 9.62039L8.22078 10.5164C7.82878 10.2204 7.46078 10.0604 6.99678 10.0604C6.55678 10.0604 6.28478 10.2364 6.28478 10.5564C6.28478 10.8844 6.66078 11.0124 7.18878 11.2204L7.93278 11.5164C8.66878 11.8124 9.10878 12.3084 9.10878 13.1484C9.10878 14.1404 8.27678 15.0124 6.83678 15.0124ZM11.4182 12.4284H12.6342L12.5062 11.9244C12.3462 11.3324 12.1942 10.6204 12.0342 10.0124H12.0022C11.8582 10.6364 11.6982 11.3324 11.5462 11.9244L11.4182 12.4284ZM13.2502 14.9004L12.9062 13.5324H11.1462L10.8022 14.9004H9.34616L11.1942 8.94839H12.9062L14.7542 14.9004H13.2502ZM15.3794 14.9004V8.94839H17.4674C18.7794 8.94839 19.8594 9.41239 19.8594 10.8844C19.8594 12.3004 18.7634 12.9244 17.5074 12.9244H16.8114V14.9004H15.3794ZM16.8114 11.7964H17.4354C18.1314 11.7964 18.4674 11.4684 18.4674 10.8844C18.4674 10.2844 18.0834 10.0764 17.3954 10.0764H16.8114V11.7964Z" fill="white"/>
</svg>
