<svg width="24" height="24" viewBox="0 0 24 24" fill="none" xmlns="http://www.w3.org/2000/svg">
    <path fill-rule="evenodd" clip-rule="evenodd" d="M16.4375 2C16.7638 2.00002 17.0783 2.12155 17.3199 2.34092C17.5614 2.56028 17.7126 2.86173 17.7439 3.1865L17.75 3.3125V5.5H19.9375C20.2638 5.50002 20.5783 5.62155 20.8199 5.84092C21.0614 6.06028 21.2126 6.36173 21.2439 6.6865L21.25 6.8125V11.6854C21.2495 11.9083 21.164 12.1227 21.0108 12.2847C20.8576 12.4467 20.6484 12.5441 20.4258 12.5571C20.2033 12.57 19.9842 12.4975 19.8132 12.3544C19.6423 12.2112 19.5325 12.0083 19.5061 11.7869L19.5 11.6854V7.25H7.25V19.5H10.799C11.0135 19.4998 11.2205 19.5784 11.3809 19.7208C11.5412 19.8633 11.6437 20.0596 11.6687 20.2726L11.674 20.375C11.674 20.5893 11.5953 20.7962 11.4529 20.9563C11.3105 21.1165 11.1142 21.2188 10.9014 21.2439L10.799 21.25H6.8125C6.48623 21.25 6.17166 21.1284 5.93013 20.9091C5.68861 20.6897 5.53745 20.3883 5.50612 20.0635L5.5 19.9375V17.75H3.3125C2.98623 17.75 2.67166 17.6284 2.43013 17.4091C2.18861 17.1897 2.03745 16.8883 2.00613 16.5635L2 16.4375V3.3125C2.00002 2.98623 2.12155 2.67166 2.34092 2.43013C2.56028 2.18861 2.86173 2.03745 3.1865 2.00613L3.3125 2H16.4375ZM16 3.75V5.5H6.8125L6.6865 5.50612C6.36173 5.53745 6.06028 5.68861 5.84092 5.93013C5.62155 6.17166 5.50002 6.48623 5.5 6.8125V16H3.75V3.75H16ZM19.7919 14.25H14.8306L12.3701 18.625L14.8306 23H19.7919L22.2524 18.625L19.7919 14.25ZM15.8535 16H18.7681L20.2442 18.625L18.7672 21.25H15.8544L14.3774 18.625L15.8535 16ZM16 18.625C16 18.9731 16.1383 19.3069 16.3844 19.5531C16.6306 19.7992 16.9644 19.9375 17.3125 19.9375C17.6606 19.9375 17.9944 19.7992 18.2406 19.5531C18.4867 19.3069 18.625 18.9731 18.625 18.625C18.625 18.2769 18.4867 17.9431 18.2406 17.6969C17.9944 17.4508 17.6606 17.3125 17.3125 17.3125C16.9644 17.3125 16.6306 17.4508 16.3844 17.6969C16.1383 17.9431 16 18.2769 16 18.625ZM16 10.75H10.75C10.1667 10.75 9.875 11.0417 9.875 11.625C9.875 12.2083 10.1667 12.5 10.75 12.5H16C16.5833 12.5 16.875 12.2083 16.875 11.625C16.875 11.0417 16.5833 10.75 16 10.75Z" fill="white"/>
</svg>
