<svg width="24" height="24" viewBox="0 0 24 24" xmlns="http://www.w3.org/2000/svg">
<g clip-path="url(#clip0_760_213)">
<path d="M16 19C16 19.3978 16.158 19.7794 16.4393 20.0607C16.7206 20.342 17.1022 20.5 17.5 20.5C17.8978 20.5 18.2794 20.342 18.5607 20.0607C18.842 19.7794 19 19.3978 19 19C19 18.6022 18.842 18.2206 18.5607 17.9393C18.2794 17.658 17.8978 17.5 17.5 17.5C17.1022 17.5 16.7206 17.658 16.4393 17.9393C16.158 18.2206 16 18.6022 16 19Z" />
<path d="M20.3345 14H14.6645L11.8525 19L14.6645 24H20.3345L23.1465 19L20.3345 14ZM19.1645 16L20.8515 19L19.1635 22H15.8345L14.1465 19L15.8335 16H19.1645Z" />
<path d="M20.5 4C20.8729 4.00002 21.2324 4.13892 21.5084 4.38962C21.7844 4.64032 21.9572 4.98484 21.993 5.356L22 5.5V11.069C21.9995 11.3238 21.9017 11.5688 21.7266 11.7539C21.5516 11.9391 21.3125 12.0504 21.0581 12.0652C20.8037 12.08 20.5533 11.9972 20.358 11.8336C20.1626 11.67 20.0371 11.438 20.007 11.185L20 11.069V6H6V20H10.056C10.3011 19.9998 10.5378 20.0896 10.721 20.2524C10.9042 20.4152 11.0213 20.6396 11.05 20.883L11.056 21C11.056 21.2449 10.966 21.4813 10.8033 21.6644C10.6405 21.8474 10.4163 21.9643 10.173 21.993L10.056 22H5.5C5.12712 22 4.76761 21.8611 4.49158 21.6104C4.21555 21.3597 4.0428 21.0152 4.007 20.644L4 20.5V5.5C4.00002 5.12712 4.13892 4.76761 4.38962 4.49158C4.64032 4.21555 4.98484 4.0428 5.356 4.007L5.5 4H20.5Z"/>
<path d="M16.5 0C16.8729 1.79006e-05 17.2324 0.13892 17.5084 0.389619C17.7844 0.640318 17.9572 0.98484 17.993 1.356L18 1.5V4.758H16V2H2V16H4.82V18H1.5C1.12712 18 0.767609 17.8611 0.491581 17.6104C0.215553 17.3597 0.0427967 17.0152 0.00700001 16.644L0 16.5V1.5C1.79006e-05 1.12712 0.13892 0.767609 0.389619 0.491581C0.640318 0.215553 0.98484 0.0427967 1.356 0.00700001L1.5 0L16.5 0Z"/>
<path d="M10 10H16C16.6667 10 17 10.3333 17 11C17 11.6667 16.6667 12 16 12H10C9.33333 12 9 11.6667 9 11C9 10.3333 9.33333 10 10 10Z"/>
</g>
<defs>
<clipPath id="clip0_760_213">
<rect width="24" height="24" fill="white"/>
</clipPath>
</defs>
</svg>
