<svg width="20" height="20" viewBox="0 0 20 20" fill="none" xmlns="http://www.w3.org/2000/svg">
<path d="M2.06667 7.73311L1.738 7.27184C1.66445 7.3242 1.60448 7.39338 1.56308 7.47362C1.52168 7.55386 1.50006 7.64282 1.5 7.73311H2.06667ZM10 2.06633L10.3287 1.60505C10.2327 1.53672 10.1178 1.5 10 1.5C9.88219 1.5 9.76731 1.53672 9.67133 1.60505L10 2.06633ZM17.9333 7.73311H18.5C18.4999 7.64282 18.4783 7.55386 18.4369 7.47362C18.3955 7.39338 18.3355 7.3242 18.262 7.27184L17.9333 7.73311ZM4.33333 9.99983V9.43315H3.76667V9.99983H4.33333ZM15.6667 9.99983H16.2333V9.43315H15.6667V9.99983ZM2.63333 18.5V7.73311H1.5V18.5H2.63333ZM2.39533 8.19439L10.3287 2.52761L9.67133 1.60505L1.738 7.27184L2.39533 8.19439ZM9.67133 2.52761L17.6047 8.19439L18.262 7.27184L10.3287 1.60505L9.67133 2.52761ZM17.3667 7.73311V18.5H18.5V7.73311H17.3667ZM4.9 18.5V9.99983H3.76667V18.5H4.9ZM4.33333 10.5665H15.6667V9.43315H4.33333V10.5665ZM15.1 9.99983V18.5H16.2333V9.99983H15.1ZM4.33333 13.9666H15.6667V12.8332H4.33333V13.9666ZM8.3 16.2333H11.7V15.0999H8.3V16.2333Z" fill="#C7E4FF"/>
</svg>
