<svg width="24" height="24" viewBox="0 0 24 24" fill="none" xmlns="http://www.w3.org/2000/svg">
    <path d="M13.4095 10.5554C13.9258 9.81979 14.2034 8.93792 14.2034 8.03337C14.2034 7.12882 13.9258 6.24695 13.4095 5.51138C13.8927 5.17507 14.4649 4.99672 15.05 5.00005C15.839 5.00005 16.5957 5.31963 17.1536 5.88849C17.7116 6.45734 18.025 7.22888 18.025 8.03337C18.025 8.83786 17.7116 9.60939 17.1536 10.1783C16.5957 10.7471 15.839 11.0667 15.05 11.0667C14.4649 11.07 13.8927 10.8917 13.4095 10.5554ZM6.975 8.03337C6.975 7.43343 7.14948 6.84697 7.47638 6.34814C7.80328 5.84932 8.26791 5.46053 8.81152 5.23094C9.35513 5.00136 9.9533 4.94129 10.5304 5.05833C11.1075 5.17537 11.6376 5.46427 12.0536 5.88849C12.4697 6.3127 12.753 6.85319 12.8678 7.4416C12.9826 8.03 12.9237 8.6399 12.6985 9.19417C12.4734 9.74844 12.0921 10.2222 11.6028 10.5555C11.1136 10.8888 10.5384 11.0667 9.95 11.0667C9.16098 11.0667 8.40428 10.7471 7.84636 10.1783C7.28844 9.60939 6.975 8.83786 6.975 8.03337ZM8.675 8.03337C8.675 8.29048 8.74978 8.54182 8.88988 8.75561C9.02998 8.96939 9.2291 9.13601 9.46208 9.23441C9.69505 9.3328 9.95142 9.35855 10.1987 9.30838C10.4461 9.25822 10.6732 9.13441 10.8516 8.9526C11.0299 8.7708 11.1513 8.53916 11.2005 8.28698C11.2497 8.03481 11.2244 7.77342 11.1279 7.53588C11.0314 7.29834 10.868 7.09531 10.6584 6.95246C10.4487 6.80962 10.2022 6.73337 9.95 6.73337C9.61185 6.73337 9.28755 6.87034 9.04844 7.11413C8.80933 7.35793 8.675 7.68859 8.675 8.03337ZM15.9 16.2667V18H4V16.2667C4 16.2667 4 12.8 9.95 12.8C15.9 12.8 15.9 16.2667 15.9 16.2667ZM14.2 16.2667C14.081 15.5907 13.0695 14.5333 9.95 14.5333C6.8305 14.5333 5.7595 15.6687 5.7 16.2667M15.8575 12.8C16.3785 13.2132 16.8044 13.7376 17.1055 14.3365C17.4065 14.9354 17.5753 15.5942 17.6 16.2667V18H21V16.2667C21 16.2667 21 13.1207 15.849 12.8H15.8575Z" fill="white"/>
</svg>
