<svg width="20" height="20" viewBox="0 0 20 20" fill="none" xmlns="http://www.w3.org/2000/svg">
<path d="M6.88462 15.3333H6.23077V16H6.88462V15.3333ZM13.4231 15.3333V16H14.0769V15.3333H13.4231ZM7.53846 15.3333V14.6667H6.23077V15.3333H7.53846ZM12.7692 14.6667V15.3333H14.0769V14.6667H12.7692ZM13.4231 14.6667H6.88462V16H13.4231V14.6667ZM10.1538 12C10.8475 12 11.5127 12.281 12.0032 12.781C12.4937 13.2811 12.7692 13.9594 12.7692 14.6667H14.0769C14.0769 13.6058 13.6636 12.5884 12.9279 11.8382C12.1922 11.0881 11.1943 10.6667 10.1538 10.6667V12ZM7.53846 14.6667C7.53846 13.9594 7.81401 13.2811 8.30449 12.781C8.79497 12.281 9.4602 12 10.1538 12V10.6667C9.11338 10.6667 8.11553 11.0881 7.37981 11.8382C6.64409 12.5884 6.23077 13.6058 6.23077 14.6667H7.53846ZM10.1538 4C9.4602 4 8.79497 4.28095 8.30449 4.78105C7.81401 5.28115 7.53846 5.95942 7.53846 6.66667H8.84615C8.84615 6.31305 8.98393 5.97391 9.22917 5.72386C9.47441 5.47381 9.80702 5.33333 10.1538 5.33333V4ZM12.7692 6.66667C12.7692 5.95942 12.4937 5.28115 12.0032 4.78105C11.5127 4.28095 10.8475 4 10.1538 4V5.33333C10.5007 5.33333 10.8333 5.47381 11.0785 5.72386C11.3238 5.97391 11.4615 6.31305 11.4615 6.66667H12.7692ZM10.1538 9.33333C10.8475 9.33333 11.5127 9.05238 12.0032 8.55229C12.4937 8.05219 12.7692 7.37391 12.7692 6.66667H11.4615C11.4615 7.02029 11.3238 7.35943 11.0785 7.60948C10.8333 7.85952 10.5007 8 10.1538 8V9.33333ZM10.1538 8C9.80702 8 9.47441 7.85952 9.22917 7.60948C8.98393 7.35943 8.84615 7.02029 8.84615 6.66667H7.53846C7.53846 7.37391 7.81401 8.05219 8.30449 8.55229C8.79497 9.05238 9.4602 9.33333 10.1538 9.33333V8ZM4.26923 1.33333H16.0385V0H4.26923V1.33333ZM16.6923 2V18H18V2H16.6923ZM16.0385 18.6667H4.26923V20H16.0385V18.6667ZM3.61538 18V2H2.30769V18H3.61538ZM4.26923 18.6667C4.09582 18.6667 3.92951 18.5964 3.80689 18.4714C3.68427 18.3464 3.61538 18.1768 3.61538 18H2.30769C2.30769 18.5304 2.51435 19.0391 2.88221 19.4142C3.25007 19.7893 3.749 20 4.26923 20V18.6667ZM16.6923 18C16.6923 18.1768 16.6234 18.3464 16.5008 18.4714C16.3782 18.5964 16.2119 18.6667 16.0385 18.6667V20C16.5587 20 17.0576 19.7893 17.4255 19.4142C17.7933 19.0391 18 18.5304 18 18H16.6923ZM16.0385 1.33333C16.2119 1.33333 16.3782 1.40357 16.5008 1.5286C16.6234 1.65362 16.6923 1.82319 16.6923 2H18C18 1.46957 17.7933 0.960859 17.4255 0.585786C17.0576 0.210714 16.5587 0 16.0385 0V1.33333ZM4.26923 0C3.749 0 3.25007 0.210714 2.88221 0.585786C2.51435 0.960859 2.30769 1.46957 2.30769 2H3.61538C3.61538 1.82319 3.68427 1.65362 3.80689 1.5286C3.92951 1.40357 4.09582 1.33333 4.26923 1.33333V0ZM4.92308 5.33333H1V6.66667H4.92308V5.33333ZM4.92308 13.3333H1V14.6667H4.92308V13.3333Z" fill="#C7E4FF"/>
</svg>
