<svg xmlns="http://www.w3.org/2000/svg" width="25" height="25" viewBox="0 0 25 25">
  <g clip-path="url(#clip0_1047_3057)">
    <path fill-rule="evenodd" clip-rule="evenodd" d="M9.22722 8.33261C10.4322 8.33261 11.409 7.35578 11.409 6.15077C11.409 4.94576 10.4322 3.96893 9.22722 3.96893C8.02225 3.96893 7.0454 4.94576 7.0454 6.15077C7.0454 7.35578 8.02225 8.33261 9.22722 8.33261ZM13.5828 5.88376C11.4957 6.47813 9.91912 8.28425 9.66208 10.493C9.51904 10.5072 9.37398 10.5144 9.22722 10.5144C6.81725 10.5144 4.86358 8.56075 4.86358 6.15077C4.86358 3.74079 6.81725 1.78711 9.22722 1.78711C11.5475 1.78711 13.4449 3.59812 13.5828 5.88376ZM9.65849 10.5247C9.51522 10.518 9.37146 10.5146 9.22733 10.5146C6.91271 10.5146 4.6929 11.383 3.05622 12.9288C1.9689 13.9557 1.19812 15.2257 0.803186 16.6035C0.471167 17.7619 1.47689 18.7571 2.68188 18.7571H6.77511C7.16739 18.1658 7.63083 17.6145 8.15945 17.1153C8.35978 16.9261 8.56771 16.746 8.78253 16.5753L3.12137 16.5753C3.43719 15.8184 3.9194 15.1147 4.55431 14.515C5.77351 13.3636 7.45241 12.6965 9.22733 12.6965C9.4405 12.6965 9.65228 12.7061 9.86204 12.725C9.70807 12.2206 9.62524 11.6852 9.62524 11.1304C9.62524 10.9256 9.63652 10.7236 9.65849 10.5247ZM2.68188 16.5753C2.67702 16.5753 2.67753 16.5743 2.68263 16.5753H2.68188Z"/>
    <path d="M18.6638 11.3129C18.6638 13.1204 17.1986 14.5856 15.3911 14.5856C13.5836 14.5856 12.1184 13.1204 12.1184 11.3129C12.1184 9.50538 13.5836 8.04013 15.3911 8.04013C17.1986 8.04013 18.6638 9.50538 18.6638 11.3129Z" stroke="#A1ADCC" stroke-width="2.18182"/>
    <path d="M22.7664 22.0672C22.8178 22.2464 22.7778 22.399 22.6477 22.5409C22.5021 22.6999 22.2454 22.8293 21.9364 22.8293H15.391H8.84552C8.5365 22.8293 8.27987 22.6999 8.13422 22.5409C8.00419 22.399 7.96416 22.2464 8.01551 22.0672C8.35559 20.8808 9.0213 19.78 9.9689 18.885C11.3968 17.5364 13.3462 16.7686 15.391 16.7686C17.4357 16.7686 19.3851 17.5364 20.813 18.885C21.7606 19.78 22.4264 20.8808 22.7664 22.0672Z" stroke="#A1ADCC" stroke-width="2.18182"/>
  </g>
  <defs>
    <clipPath id="clip0_1047_3057">
      <rect width="24" height="24" transform="translate(0.5 0.675781)"/>
    </clipPath>
  </defs>
</svg>
