<svg width="24" height="24" viewBox="0 0 24 24" fill="none" xmlns="http://www.w3.org/2000/svg">
    <path d="M6.67453 10.125L4.79245 17.625V8.25H20.0283C20.0283 7.75272 19.8395 7.27581 19.5033 6.92417C19.1672 6.57254 18.7112 6.375 18.2358 6.375H11.9623L10.1698 4.5H4.79245C4.31706 4.5 3.86115 4.69754 3.525 5.04917C3.18885 5.40081 3 5.87772 3 6.375V17.625C3 18.1223 3.18885 18.5992 3.525 18.9508C3.86115 19.3025 4.31706 19.5 4.79245 19.5H18.2358C19.0425 19.5 19.7594 18.9375 19.9387 18.0938L22 10.125H6.67453ZM18.2358 17.625H6.58491L8.01887 12H19.6698L18.2358 17.625Z" fill="white"/>
</svg>
